<svg xmlns="http://www.w3.org/2000/svg" viewBox="0 0 24 24" fill="currentColor"><path d="M22 7h-5v2h5V7zm1.71 10.3c-.45 1.5-2.06 2.41-3.69 2.05-1.63-.41-2.26-2.09-2.03-3.62.14-1.09.84-1.92 1.83-2.18.99-.24 2.16.14 2.76.99.69.96.88 2.02 1.13 2.76zm-1.12-1.74c-.03-.78-.62-1.28-1.39-1.24-.76.04-1.27.65-1.22 1.48.04.79.67 1.25 1.41 1.22.75-.05 1.24-.69 1.2-1.46zm-9.17 3.32c-2.73.18-4.73-1.54-4.57-3.93.07-1.1.58-1.95 1.42-2.55-.71-.53-1.11-1.3-1.04-2.22.13-1.84 1.88-3.07 4.09-2.88 1.42.12 2.53.86 3.03 2.02.48 1.11.28 2.27-.47 3.07.97.7 1.56 1.74 1.45 3.09-.17 2.1-1.98 3.51-3.91 3.4zm-.26-7.85c-1.22-.09-2.13.73-2.2 1.86-.06 1.05.74 1.88 1.87 1.96 1.13.08 2.05-.66 2.12-1.78.07-1.11-.74-1.94-1.79-2.04zm.37 6.13c1.37.08 2.37-.8 2.45-2.16.08-1.29-.8-2.31-2.16-2.4-1.35-.09-2.45.83-2.54 2.22-.09 1.39.88 2.26 2.25 2.34zM.16 11.27h3.49v-4.8H.16v4.8zm3.48 1.65H.16v4.75h3.49v-4.75z"/></svg>