<svg xmlns="http://www.w3.org/2000/svg" viewBox="0 0 24 24" fill="currentColor"><path d="M18.561 13.158c-1.102 0-2.135-.467-3.074-1.227l.228-1.076.008-.042c.207-1.143.849-3.06 2.839-3.06 1.492 0 2.703 1.212 2.703 2.703-.001 1.489-1.212 2.702-2.704 2.702zm0-8.14c-2.594 0-4.707 2.112-4.707 4.707 0 .174.009.346.026.516l-1.071-4.76h-3.32l1.621 6.556c-1.897-.939-2.614-3.085-2.614-4.881v-1.675h-2.91v1.675c0 3.391 1.769 5.86 4.394 6.782l-1.948 4.703h3.184l1.246-3.045c.571.211 1.18.324 1.812.324 2.594 0 4.707-2.112 4.707-4.707 0-2.592-2.113-4.705-4.707-4.705z"/></svg>